<?xml version="1.0" encoding="UTF-8" standalone="no"?>
<svg
   xmlns:dc="http://purl.org/dc/elements/1.1/"
   xmlns:cc="http://creativecommons.org/ns#"
   xmlns:rdf="http://www.w3.org/1999/02/22-rdf-syntax-ns#"
   xmlns:svg="http://www.w3.org/2000/svg"
   xmlns="http://www.w3.org/2000/svg"
   viewBox="0 0 298.26531 47.393335"
   height="47.393333"
   width="298.26532"
   xml:space="preserve"
   id="svg2"
   version="1.1"><metadata
     id="metadata8"><rdf:RDF><cc:Work
         rdf:about=""><dc:format>image/svg+xml</dc:format><dc:type
           rdf:resource="http://purl.org/dc/dcmitype/StillImage" /><dc:title></dc:title></cc:Work></rdf:RDF></metadata><defs
     id="defs6" /><g
     transform="matrix(1.3333333,0,0,-1.3333333,-1149.5346,683.10132)"
     id="g10"><path
   d="m 897.568,486.967 v 25.359 h -3.935 v -23.294 l -13.774,-7.902 -13.773,7.902 v 23.294 h -3.935 v -25.359 l 17.708,-10.186 17.709,10.186"
   style="fill:#ffffff;fill-opacity:1;fill-rule:nonzero;stroke:none;stroke-width:0.1"
   id="path40" /><path
   d="m 885.763,508.75 v -19.696 l 3.934,2.257 v 17.439 h -3.934"
   style="fill:#ffffff;fill-opacity:1;fill-rule:nonzero;stroke:none;stroke-width:0.1"
   id="path42" /><path
   d="m 877.893,504.062 v -17.266 l 1.966,-1.129 1.969,1.129 v 17.266 h -3.935"
   style="fill:#ffffff;fill-opacity:1;fill-rule:nonzero;stroke:none;stroke-width:0.1"
   id="path44" /><path
   d="m 870.021,499 v -7.689 l 3.936,-2.257 V 499 h -3.936"
   style="fill:#ffffff;fill-opacity:1;fill-rule:nonzero;stroke:none;stroke-width:0.1"
   id="path46" /><path
   d="m 931.814,509.203 h 3.781 V 488.55 c 0,-2.52 -2.031,-4.55 -4.551,-4.55 h -16.102 c -2.52,0 -4.549,2.03 -4.549,4.55 v 20.653 h 3.779 V 488.55 c 0,-0.42 0.35,-0.77 0.77,-0.77 h 16.102 c 0.421,0 0.77,0.35 0.77,0.77 v 20.653"
   style="fill:#ffffff;fill-opacity:1;fill-rule:nonzero;stroke:none;stroke-width:0.1"
   id="path48" /><path
   d="m 963.314,509.203 h 3.781 V 484 h -4.481 l -16.942,20.162 V 484 h -3.78 v 25.203 h 4.48 l 16.942,-20.162 v 20.162"
   style="fill:#ffffff;fill-opacity:1;fill-rule:nonzero;stroke:none;stroke-width:0.1"
   id="path50" /><path
   d="m 994.884,504.617 c 0,0.42 -0.351,0.77 -0.771,0.77 h -16.101 c -0.42,0 -0.771,-0.35 -0.771,-0.77 v -7.071 c 0,-0.42 0.351,-0.77 0.771,-0.77 h 16.101 c 0.42,0 0.771,0.35 0.771,0.77 z m -0.771,4.55 c 2.521,0 4.551,-2.064 4.551,-4.55 v -7.071 c 0,-2.485 -2.03,-4.55 -4.551,-4.55 h -16.101 c -0.281,0 -0.526,0.035 -0.771,0.07 V 484 h -3.78 v 25.167 h 20.652"
   style="fill:#ffffff;fill-opacity:1;fill-rule:nonzero;stroke:none;stroke-width:0.1"
   id="path52" /><path
   d="m 1024.18,487.78 c 0.42,0 0.77,0.35 0.77,0.77 v 16.102 c 0,0.42 -0.35,0.77 -0.77,0.77 h -16.1 c -0.42,0 -0.77,-0.35 -0.77,-0.77 V 488.55 c 0,-0.42 0.35,-0.77 0.77,-0.77 z m 0,21.423 c 2.52,0 4.55,-2.031 4.55,-4.551 V 488.55 c 0,-2.52 -2.03,-4.55 -4.55,-4.55 h -16.1 c -2.52,0 -4.55,2.03 -4.55,4.55 v 16.102 c 0,2.52 2.03,4.551 4.55,4.551 h 16.1"
   style="fill:#ffffff;fill-opacity:1;fill-rule:nonzero;stroke:none;stroke-width:0.1"
   id="path54" /><path
   d="m 1035.06,509.238 h 3.78 V 487.78 h 21.42 V 484 h -25.2 v 25.238"
   style="fill:#ffffff;fill-opacity:1;fill-rule:nonzero;stroke:none;stroke-width:0.1"
   id="path56" /><path
   d="m 1085.85,509.203 -11.62,-15.752 V 484 h -3.78 v 9.451 l -11.62,15.752 h 4.44 l 9.07,-11.481 9.03,11.481 h 4.48"
   style="fill:#ffffff;fill-opacity:1;fill-rule:nonzero;stroke:none;stroke-width:0.1"
   id="path58" /><path
   d="m 364.854,101.484 v 20.287 h -3.147 v -18.634 l -11.019,-6.3222 -11.019,6.3222 v 18.634 h -3.148 v -20.287 l 14.167,-8.1481 14.166,8.1481"
   style="fill:#ffffff;fill-opacity:1;fill-rule:nonzero;stroke:none;stroke-width:0.1"
   id="path60" /><path
   d="m 355.41,115.911 v -12.757 l 3.148,1.805 v 10.952 h -3.148"
   style="fill:#ffffff;fill-opacity:1;fill-rule:nonzero;stroke:none;stroke-width:0.1"
   id="path62" /><path
   d="m 349.114,121.771 v -20.423 l 1.574,-0.904 1.574,0.904 v 20.423 h -3.148"
   style="fill:#ffffff;fill-opacity:1;fill-rule:nonzero;stroke:none;stroke-width:0.1"
   id="path64" /><path
   d="m 342.817,119.111 v -14.152 l 3.149,-1.805 v 15.957 h -3.149"
   style="fill:#ffffff;fill-opacity:1;fill-rule:nonzero;stroke:none;stroke-width:0.1"
   id="path66" /><path
   d="m 392.251,119.273 h 3.025 v -16.521 c 0,-2.017 -1.625,-3.6411 -3.641,-3.6411 h -12.881 c -2.016,0 -3.64,1.6241 -3.64,3.6411 v 16.521 h 3.024 v -16.521 c 0,-0.336 0.28,-0.617 0.616,-0.617 h 12.881 c 0.337,0 0.616,0.281 0.616,0.617 v 16.521"
   style="fill:#ffffff;fill-opacity:1;fill-rule:nonzero;stroke:none;stroke-width:0.1"
   id="path68" /><path
   d="m 417.452,119.273 h 3.024 V 99.1109 h -3.584 L 403.337,115.24 V 99.1109 h -3.024 v 20.1621 h 3.584 l 13.555,-16.129 v 16.129"
   style="fill:#ffffff;fill-opacity:1;fill-rule:nonzero;stroke:none;stroke-width:0.1"
   id="path70" /><path
   d="m 442.707,115.604 c 0,0.336 -0.28,0.617 -0.616,0.617 h -12.882 c -0.335,0 -0.616,-0.281 -0.616,-0.617 v -5.656 c 0,-0.336 0.281,-0.616 0.616,-0.616 h 12.882 c 0.336,0 0.616,0.28 0.616,0.616 z m -0.616,3.641 c 2.016,0 3.64,-1.652 3.64,-3.641 v -5.656 c 0,-1.989 -1.624,-3.64 -3.64,-3.64 h -12.882 c -0.224,0 -0.42,0.028 -0.616,0.056 v -7.2531 h -3.024 v 20.1341 h 16.522"
   style="fill:#ffffff;fill-opacity:1;fill-rule:nonzero;stroke:none;stroke-width:0.1"
   id="path72" /><path
   d="m 466.142,102.135 c 0.336,0 0.617,0.281 0.617,0.617 v 12.881 c 0,0.336 -0.281,0.615 -0.617,0.615 h -12.881 c -0.336,0 -0.615,-0.279 -0.615,-0.615 v -12.881 c 0,-0.336 0.279,-0.617 0.615,-0.617 z m 0,17.138 c 2.017,0 3.641,-1.625 3.641,-3.64 v -12.881 c 0,-2.017 -1.624,-3.6411 -3.641,-3.6411 h -12.881 c -2.016,0 -3.64,1.6241 -3.64,3.6411 v 12.881 c 0,2.015 1.624,3.64 3.64,3.64 h 12.881"
   style="fill:#ffffff;fill-opacity:1;fill-rule:nonzero;stroke:none;stroke-width:0.1"
   id="path74" /><path
   d="m 474.849,119.302 h 3.024 v -17.167 h 17.138 v -3.0241 h -20.162 v 20.1911"
   style="fill:#ffffff;fill-opacity:1;fill-rule:nonzero;stroke:none;stroke-width:0.1"
   id="path76" /><path
   d="m 515.479,119.273 -9.297,-12.601 v -7.5611 h -3.025 v 7.5611 l -9.297,12.601 h 3.557 l 7.252,-9.185 7.226,9.185 h 3.584"
   style="fill:#ffffff;fill-opacity:1;fill-rule:nonzero;stroke:none;stroke-width:0.1"
   id="path78" /><path
   d="m 912.855,101.484 v 20.287 h -3.148 v -18.634 l -11.019,-6.3222 -11.019,6.3222 v 18.634 h -3.148 v -20.287 l 14.167,-8.1481 14.167,8.1481"
   style="fill:#ffffff;fill-opacity:1;fill-rule:nonzero;stroke:none;stroke-width:0.1"
   id="path80" /><path
   d="m 903.41,118.911 v -15.757 l 3.149,1.805 v 13.952 h -3.149"
   style="fill:#ffffff;fill-opacity:1;fill-rule:nonzero;stroke:none;stroke-width:0.1"
   id="path82" /><path
   d="m 897.114,115.161 v -13.813 l 1.574,-0.904 1.575,0.904 v 13.813 h -3.149"
   style="fill:#ffffff;fill-opacity:1;fill-rule:nonzero;stroke:none;stroke-width:0.1"
   id="path84" /><path
   d="m 890.817,111.111 v -6.152 l 3.149,-1.805 v 7.957 h -3.149"
   style="fill:#ffffff;fill-opacity:1;fill-rule:nonzero;stroke:none;stroke-width:0.1"
   id="path86" /><path
   d="m 940.252,119.273 h 3.023 v -16.521 c 0,-2.017 -1.623,-3.6411 -3.64,-3.6411 h -12.881 c -2.016,0 -3.64,1.6241 -3.64,3.6411 v 16.521 h 3.024 v -16.521 c 0,-0.336 0.28,-0.617 0.616,-0.617 h 12.881 c 0.338,0 0.617,0.281 0.617,0.617 v 16.521"
   style="fill:#ffffff;fill-opacity:1;fill-rule:nonzero;stroke:none;stroke-width:0.1"
   id="path88" /><path
   d="m 965.451,119.273 h 3.026 V 99.1109 h -3.585 L 951.338,115.24 V 99.1109 h -3.025 v 20.1621 h 3.585 l 13.553,-16.129 v 16.129"
   style="fill:#ffffff;fill-opacity:1;fill-rule:nonzero;stroke:none;stroke-width:0.1"
   id="path90" /><path
   d="m 990.707,115.604 c 0,0.336 -0.28,0.617 -0.616,0.617 h -12.882 c -0.336,0 -0.615,-0.281 -0.615,-0.617 v -5.656 c 0,-0.336 0.279,-0.616 0.615,-0.616 h 12.882 c 0.336,0 0.616,0.28 0.616,0.616 z m -0.616,3.641 c 2.016,0 3.64,-1.652 3.64,-3.641 v -5.656 c 0,-1.989 -1.624,-3.64 -3.64,-3.64 h -12.882 c -0.224,0 -0.42,0.028 -0.615,0.056 v -7.2531 h -3.026 v 20.1341 h 16.523"
   style="fill:#ffffff;fill-opacity:1;fill-rule:nonzero;stroke:none;stroke-width:0.1"
   id="path92" /><path
   d="m 1014.14,102.135 c 0.34,0 0.62,0.281 0.62,0.617 v 12.881 c 0,0.336 -0.28,0.615 -0.62,0.615 h -12.88 c -0.33,0 -0.61,-0.279 -0.61,-0.615 v -12.881 c 0,-0.336 0.28,-0.617 0.61,-0.617 z m 0,17.138 c 2.02,0 3.64,-1.625 3.64,-3.64 v -12.881 c 0,-2.017 -1.62,-3.6411 -3.64,-3.6411 h -12.88 c -2.014,0 -3.639,1.6241 -3.639,3.6411 v 12.881 c 0,2.015 1.625,3.64 3.639,3.64 h 12.88"
   style="fill:#ffffff;fill-opacity:1;fill-rule:nonzero;stroke:none;stroke-width:0.1"
   id="path94" /><path
   d="m 1022.85,119.302 h 3.02 v -17.167 h 17.14 v -3.0241 h -20.16 v 20.1911"
   style="fill:#ffffff;fill-opacity:1;fill-rule:nonzero;stroke:none;stroke-width:0.1"
   id="path96" /><path
   d="m 1063.48,119.273 -9.3,-12.601 v -7.5611 h -3.02 v 7.5611 l -9.3,12.601 h 3.56 l 7.25,-9.185 7.22,9.185 h 3.59"
   style="fill:#ffffff;fill-opacity:1;fill-rule:nonzero;stroke:none;stroke-width:0.1"
   id="path98" />

</g></svg>